<svg width="64" height="69" viewBox="0 0 64 69" fill="none" xmlns="http://www.w3.org/2000/svg">
<path d="M31.7585 2.20301C32.1919 1.66065 32.7286 1.20965 33.3376 0.876112C33.9465 0.542574 34.6155 0.333124 35.3059 0.259884C35.9963 0.186645 36.6944 0.251071 37.3597 0.449435C38.025 0.647798 38.6444 0.976157 39.182 1.41551L56.3075 15.4015C57.2493 16.1705 57.895 17.2425 58.1344 18.4346C58.3737 19.6266 58.1919 20.8648 57.62 21.9378C56.1227 21.4802 54.5656 21.2484 53 21.25H51.425L52.9895 19.465L43.97 12.0993L36.5308 21.2553H29.7635L39.9012 8.78126L35.8587 5.47901L23.2692 21.25H16.5493L31.7585 2.20301ZM45.125 47.5C44.4288 47.5 43.7611 47.7766 43.2688 48.2688C42.7766 48.7611 42.5 49.4288 42.5 50.125C42.5 50.8212 42.7766 51.4889 43.2688 51.9812C43.7611 52.4734 44.4288 52.75 45.125 52.75H50.375C51.0712 52.75 51.7389 52.4734 52.2312 51.9812C52.7234 51.4889 53 50.8212 53 50.125C53 49.4288 52.7234 48.7611 52.2312 48.2688C51.7389 47.7766 51.0712 47.5 50.375 47.5H45.125ZM5.75 23.875C5.75 23.1788 6.02656 22.5111 6.51885 22.0189C7.01113 21.5266 7.67881 21.25 8.375 21.25H11.3045L15.4783 16H8.375C6.28642 16 4.28338 16.8297 2.80653 18.3065C1.32969 19.7834 0.5 21.7864 0.5 23.875V55.375C0.5 58.856 1.88281 62.1944 4.34422 64.6558C6.80564 67.1172 10.144 68.5 13.625 68.5H53C55.7848 68.5 58.4555 67.3938 60.4246 65.4246C62.3937 63.4555 63.5 60.7848 63.5 58V37C63.5 34.2152 62.3937 31.5445 60.4246 29.5754C58.4555 27.6063 55.7848 26.5 53 26.5H8.375C7.67881 26.5 7.01113 26.2234 6.51885 25.7312C6.02656 25.2389 5.75 24.5712 5.75 23.875ZM5.75 55.375V31.3038C6.569 31.5925 7.45625 31.75 8.375 31.75H53C54.3924 31.75 55.7277 32.3031 56.7123 33.2877C57.6969 34.2723 58.25 35.6076 58.25 37V58C58.25 59.3924 57.6969 60.7277 56.7123 61.7123C55.7277 62.6969 54.3924 63.25 53 63.25H13.625C11.5364 63.25 9.53338 62.4203 8.05653 60.9435C6.57969 59.4666 5.75 57.4636 5.75 55.375Z" fill="url(#paint0_linear_14_217)"/>
<defs>
<linearGradient id="paint0_linear_14_217" x1="0.5" y1="34.3653" x2="63.5" y2="34.3653" gradientUnits="userSpaceOnUse">
<stop stop-color="#2AF598"/>
<stop offset="1" stop-color="#009EFD"/>
</linearGradient>
</defs>
</svg>
